# xmcd
#
# Track frame offsets: 
#        150
#        15842
#        37774
#        51606
#        73066
#        92636
#        116931
#        135593
#        156963
#        182848
#        204713
#
# Disc length: 2895 seconds
#
# Revision: 0
# Processed by: cddbd v1.5.2PL0 Copyright (c) Steve Scherf et al.
# Submitted via: ExactAudioCopy v1.0b3
#
DISCID=980b4d0b
DTITLE=Lewis Hamilton - Ghost Train
DYEAR=2013
DGENRE=Blues
TTITLE0=Lonesome and Blue
TTITLE1=Cheap Cigars
TTITLE2=Ghost Train
TTITLE3=Trust in Me
TTITLE4=Whiskey Boogie
TTITLE5=Down to the River
TTITLE6=By The Oak Tree
TTITLE7=Head in the Sand
TTITLE8=Breaking Heart
TTITLE9=Sunrise
TTITLE10=Journey Home
EXTD=
EXTT0=
EXTT1=
EXTT2=
EXTT3=
EXTT4=
EXTT5=
EXTT6=
EXTT7=
EXTT8=
EXTT9=
EXTT10=
PLAYORDER=
